<?xml version="1.0" encoding="UTF-8" standalone="no"?>
<!-- Created with Inkscape (http://www.inkscape.org/) -->

<svg
   width="142.05296mm"
   height="41.922211mm"
   viewBox="0 0 142.05296 41.922211"
   version="1.1"
   id="svg1"
   xmlns="http://www.w3.org/2000/svg"
   xmlns:svg="http://www.w3.org/2000/svg">
  <defs
     id="defs1">
    <clipPath
       clipPathUnits="userSpaceOnUse"
       id="clipPath39">
      <path
         id="path39"
         style="display:none;fill:#ffffff;stroke-width:0.264999"
         d="m 124.78773,29.13724 c -1.82127,0 -3.60507,0.594256 -5.35109,1.783352 -1.73096,1.189096 -3.13823,2.739811 -4.22197,4.651396 -1.08373,1.896534 -1.62574,3.845293 -1.62574,5.847189 0,1.761066 0.45185,3.130939 1.35496,4.10931 0.90311,0.963318 2.17462,1.444873 3.81527,1.444873 1.83633,0 3.62013,-0.586573 5.35109,-1.760617 1.74601,-1.189095 3.16098,-2.724438 4.24471,-4.605919 1.08373,-1.896533 1.62574,-3.845809 1.62574,-5.847705 0,-1.79117 -0.45953,-3.175899 -1.3777,-4.15427 -0.90311,-0.978368 -2.17462,-1.467609 -3.81527,-1.467609 z m -25.693519,0.225827 -0.225828,0.519348 1.873787,0.428913 -6.41201,15.487944 -2.190049,0.429432 -0.225824,0.519348 h 5.125267 l 0.225828,-0.519348 -1.851568,-0.429432 6.073536,-14.630114 h 0.0904 l 3.2737,15.804202 h 1.30948 l 6.93136,-16.662032 2.16731,-0.428913 0.22583,-0.519348 h -5.14749 l -0.22583,0.519348 1.87379,0.428913 -5.2157,12.575461 h -0.0899 L 103.88048,29.363067 Z M 120.45311,48.13763 c -1.82128,0 -3.60508,0.594773 -5.35109,1.783871 -1.73097,1.189096 -3.13824,2.739292 -4.22197,4.650878 -1.08373,1.896533 -1.62522,3.845811 -1.62522,5.847707 0,1.761067 0.45133,3.130939 1.35444,4.10931 0.90311,0.963316 2.17514,1.444871 3.81579,1.444871 1.83633,0 3.61962,-0.587087 5.35057,-1.761133 1.74602,-1.189096 3.16098,-2.724438 4.24471,-4.605919 1.08373,-1.896534 1.62574,-3.845809 1.62574,-5.847705 0,-1.791171 -0.45902,-3.175897 -1.37718,-4.154268 -0.90311,-0.978371 -2.17514,-1.467612 -3.81579,-1.467612 z m -25.693518,0.225825 -0.225827,0.519348 1.873787,0.428916 -6.412013,15.488459 -2.190046,0.428914 -0.225825,0.51935 h 5.125268 l 0.225827,-0.51935 -1.851567,-0.428914 6.073531,-14.630114 h 0.09043 l 3.273703,15.804203 h 1.30948 l 6.93136,-16.662548 2.16783,-0.428916 0.22531,-0.519348 h -5.14749 l -0.22583,0.519348 1.87379,0.428916 -5.21519,12.575976 h -0.0904 l -2.79983,-13.52424 z" />
      <path
         id="lpe_path-effect39"
         style="fill:#ffffff;stroke-width:0.264999"
         class="powerclip"
         d="M 35.112621,21.540682 H 187.16558 V 73.462893 H 35.112621 Z m 89.675109,7.596558 c -1.82127,0 -3.60507,0.594256 -5.35109,1.783352 -1.73096,1.189096 -3.13823,2.739811 -4.22197,4.651396 -1.08373,1.896534 -1.62574,3.845293 -1.62574,5.847189 0,1.761066 0.45185,3.130939 1.35496,4.10931 0.90311,0.963318 2.17462,1.444873 3.81527,1.444873 1.83633,0 3.62013,-0.586573 5.35109,-1.760617 1.74601,-1.189095 3.16098,-2.724438 4.24471,-4.605919 1.08373,-1.896533 1.62574,-3.845809 1.62574,-5.847705 0,-1.79117 -0.45953,-3.175899 -1.3777,-4.15427 -0.90311,-0.978368 -2.17462,-1.467609 -3.81527,-1.467609 z m -25.693519,0.225827 -0.225828,0.519348 1.873787,0.428913 -6.41201,15.487944 -2.190049,0.429432 -0.225824,0.519348 h 5.125267 l 0.225828,-0.519348 -1.851568,-0.429432 6.073536,-14.630114 h 0.0904 l 3.2737,15.804202 h 1.30948 l 6.93136,-16.662032 2.16731,-0.428913 0.22583,-0.519348 h -5.14749 l -0.22583,0.519348 1.87379,0.428913 -5.2157,12.575461 h -0.0899 L 103.88048,29.363067 Z M 120.45311,48.13763 c -1.82128,0 -3.60508,0.594773 -5.35109,1.783871 -1.73097,1.189096 -3.13824,2.739292 -4.22197,4.650878 -1.08373,1.896533 -1.62522,3.845811 -1.62522,5.847707 0,1.761067 0.45133,3.130939 1.35444,4.10931 0.90311,0.963316 2.17514,1.444871 3.81579,1.444871 1.83633,0 3.61962,-0.587087 5.35057,-1.761133 1.74602,-1.189096 3.16098,-2.724438 4.24471,-4.605919 1.08373,-1.896534 1.62574,-3.845809 1.62574,-5.847705 0,-1.791171 -0.45902,-3.175897 -1.37718,-4.154268 -0.90311,-0.978371 -2.17514,-1.467612 -3.81579,-1.467612 z m -25.693518,0.225825 -0.225827,0.519348 1.873787,0.428916 -6.412013,15.488459 -2.190046,0.428914 -0.225825,0.51935 h 5.125268 l 0.225827,-0.51935 -1.851567,-0.428914 6.073531,-14.630114 h 0.09043 l 3.273703,15.804203 h 1.30948 l 6.93136,-16.662548 2.16783,-0.428916 0.22531,-0.519348 h -5.14749 l -0.22583,0.519348 1.87379,0.428916 -5.21519,12.575976 h -0.0904 l -2.79983,-13.52424 z" />
    </clipPath>
  </defs>
  <path
     style="fill:#f6760f;fill-opacity:1;stroke:#f6760f;stroke-width:0;stroke-dasharray:none;stroke-opacity:1"
     id="rect23"
     width="142.05296"
     height="41.922211"
     x="40.112621"
     y="26.540682"
     clip-path="url(#clipPath39)"
     d="M 40.112621,26.540682 H 182.16558 V 68.462893 H 40.112621 Z"
     ry="0"
     transform="translate(-40.112621,-26.540682)" />
  <g
     id="text23"
     style="font-style:italic;font-size:22.5778px;line-height:0.9;font-family:'Libre Caslon Text';-inkscape-font-specification:'Libre Caslon Text Italic';fill:#1d1300;stroke-width:0.264999"
     aria-label="CONNOR"
     transform="translate(-40.112621,-26.540682)">
    <path
       style="stroke-width:0.265"
       d="m 52.515924,45.009304 q -1.33209,1.038579 -2.596447,1.512713 -1.241779,0.451556 -2.77707,0.451556 -5.305783,0 -5.305783,-5.034849 0,-3.115737 1.873958,-6.096007 1.873957,-2.980269 4.854227,-4.831649 2.980269,-1.873957 6.118584,-1.873957 1.083734,0 2.009424,0.270933 0.92569,0.248356 1.535291,0.699912 l 0.8128,-0.745067 h 0.496712 l -2.190047,5.192894 h -0.654756 q 0.338667,-1.264357 0.338667,-2.122314 0,-1.196623 -0.632178,-1.73849 -0.609601,-0.564445 -1.941691,-0.564445 -2.483558,0 -4.854227,1.693335 -2.348092,1.693335 -3.815649,4.425249 -1.467557,2.709336 -1.467557,5.554139 0,4.109159 3.431826,4.109159 2.190047,0 4.086582,-1.53529 1.896535,-1.557868 3.048003,-4.244627 h 0.654756 l -2.506136,6.615296 h -0.6096 l 0.180622,-1.738491 z m 11.514691,1.964269 q 2.754492,0 5.350939,-1.761068 2.619025,-1.783647 4.244626,-4.605872 1.625602,-2.844803 1.625602,-5.84765 0,-2.686758 -1.377246,-4.154315 -1.354668,-1.467557 -3.815648,-1.467557 -2.731914,0 -5.350939,1.783646 -2.596447,1.783646 -4.222049,4.651027 -1.625601,2.844803 -1.625601,5.84765 0,2.641603 1.354668,4.10916 1.354668,1.444979 3.815648,1.444979 z m 0.338667,-1.061157 q -1.467557,0 -2.190047,-0.948267 -0.699911,-0.970846 -0.699911,-2.957692 0,-2.844803 1.241779,-5.599295 1.241779,-2.777069 3.206047,-4.51556 1.986847,-1.761068 3.996271,-1.761068 1.422401,0 2.122313,0.970845 0.699912,0.948268 0.699912,2.889959 0,2.86738 -1.241779,5.64445 -1.219201,2.777069 -3.18347,4.538138 -1.941691,1.73849 -3.951115,1.73849 z m 18.717036,-14.743303 -6.073429,14.630414 1.85138,0.428979 -0.225778,0.519289 H 73.51333 l 0.225778,-0.519289 2.190047,-0.428979 6.412095,-15.488371 -1.873957,-0.428978 0.225778,-0.519289 h 4.786493 l 2.799648,13.524102 h 0.09031 l 5.215472,-12.575835 -1.873958,-0.428978 0.225778,-0.519289 h 5.147739 l -0.225778,0.519289 -2.167469,0.428978 -6.931385,16.662417 H 86.45041 l -3.273781,-15.80446 z"
       id="path29" />
    <path
       style="stroke-width:0.265"
       d="m 140.5243,46.747795 h 4.53814 l 0.15804,-0.519289 -2.4384,-0.428979 -2.57387,-7.157162 q 2.77707,-0.406401 4.40267,-1.896536 1.62561,-1.490134 1.62561,-3.702759 0,-3.680181 -5.12517,-3.680181 h -5.41867 l -0.2032,0.519289 1.76107,0.428978 -6.45725,15.488371 -1.98685,0.428979 -0.2032,0.519289 h 7.13459 l 0.22578,-0.519289 -2.68676,-0.428979 2.86738,-7.044273 h 1.73849 z m -0.79022,-16.459217 h 1.37724 q 1.37725,0 2.09974,0.699912 0.74507,0.699912 0.74507,2.032002 0,1.264357 -0.72249,2.370669 -0.72249,1.083735 -1.94169,1.738491 -1.2192,0.632178 -2.61903,0.632178 h -2.09973 z"
       id="path31" />
  </g>
  <g
     id="text24"
     style="font-style:italic;font-size:22.5778px;line-height:0.9;font-family:'Libre Caslon Text';-inkscape-font-specification:'Libre Caslon Text Italic';fill:#1d1300;stroke-width:0.264999"
     aria-label="NOLAN"
     transform="translate(-40.112621,-26.540682)">
    <path
       style="stroke-width:0.265"
       d="m 140.09587,60.284669 h -0.76764 q -1.67076,2.77707 -3.20605,4.560716 h -7.17974 l 6.36694,-15.465794 2.28036,-0.496711 0.22577,-0.51929 h -6.45725 l -0.22577,0.51929 1.76106,0.428978 -6.41209,15.488371 -2.07716,0.428979 -0.22578,0.519289 h 13.74988 z m 13.07254,-9.821343 -10.45352,12.146857 q -0.79022,0.903112 -1.30951,1.377246 -0.54187,0.451556 -1.19662,0.722489 -0.67734,0.248356 -1.76107,0.406401 l -0.31609,0.632178 h 6.27663 l 0.29351,-0.632178 q -0.99342,-0.135467 -1.44498,-0.338667 -0.45156,-0.225778 -0.47413,-0.587023 0,-0.293512 0.18062,-0.587023 0.18062,-0.316089 0.72249,-0.948268 l 2.91253,-3.364092 h 5.35094 l -0.56444,4.086582 q -0.15805,1.016001 -0.74507,1.377246 -0.56444,0.338667 -1.89653,0.361245 l -0.31609,0.632178 h 6.95396 l 0.31609,-0.632178 q -1.08374,-0.06773 -1.49014,-0.270934 -0.4064,-0.225778 -0.42897,-0.790223 0,-0.248356 0.0226,-0.383823 l 2.05458,-15.827038 -2.4384,0.519289 z m -5.84765,7.992541 5.68961,-6.57014 -0.94827,6.57014 z m 18.85245,-8.286053 -6.07343,14.630415 1.85138,0.428979 -0.22578,0.519289 h -5.12516 l 0.22578,-0.519289 2.19005,-0.428979 6.41209,-15.488371 -1.87396,-0.428978 0.22578,-0.51929 h 4.7865 l 2.79964,13.524103 h 0.0903 l 5.21548,-12.575835 -1.87396,-0.428978 0.22578,-0.51929 h 5.14774 l -0.22578,0.51929 -2.16747,0.428978 -6.93139,16.662417 h -1.30951 l -3.27378,-15.804461 z"
       id="path28" />
  </g>
</svg>
