<?xml version="1.0" encoding="UTF-8" standalone="no"?>
<svg
   xmlns:dc="http://purl.org/dc/elements/1.1/"
   xmlns:cc="http://creativecommons.org/ns#"
   xmlns:rdf="http://www.w3.org/1999/02/22-rdf-syntax-ns#"
   xmlns:svg="http://www.w3.org/2000/svg"
   xmlns="http://www.w3.org/2000/svg"
   xmlns:xlink="http://www.w3.org/1999/xlink"
   id="svg8"
   version="1.1"
   viewBox="0 0 118.07517 186.32114"
   height="186.32114mm"
   width="118.07517mm">
  <defs
     id="defs2">
    <marker
       style="overflow:visible"
       id="Arrow1Lstart"
       refX="0"
       refY="0"
       orient="auto">
      <path
         transform="matrix(0.8,0,0,0.8,10,0)"
         style="fill:#b33d6f;fill-opacity:1;fill-rule:evenodd;stroke:none;stroke-width:1.00000003pt;stroke-opacity:1"
         d="M 0,0 5,-5 -12.5,0 5,5 Z"
         id="path5082" />
    </marker>
    <linearGradient
       id="linearGradient3729">
      <stop
         id="stop3725"
         offset="0"
         style="stop-color:#9c1348;stop-opacity:1" />
      <stop
         id="stop3727"
         offset="1"
         style="stop-color:#ec4b00;stop-opacity:1" />
    </linearGradient>
    <linearGradient
       gradientUnits="userSpaceOnUse"
       y2="629.56525"
       x2="600.03058"
       y1="316.41794"
       x1="264.65997"
       id="linearGradient3731"
       xlink:href="#linearGradient3729" />
  </defs>
  <metadata
     id="metadata5">
    <rdf:RDF>
      <cc:Work
         rdf:about="">
        <dc:format>image/svg+xml</dc:format>
        <dc:type
           rdf:resource="http://purl.org/dc/dcmitype/StillImage" />
        <dc:title></dc:title>
      </cc:Work>
    </rdf:RDF>
  </metadata>
  <g
     transform="translate(-35.751174,-23.345238)"
     style="display:inline"
     id="layer2">
    <path
       id="path3719-5"
       d="m 86.102644,40.867576 c 0.16061,19.350147 0.0917,55.405937 0.0917,55.405937 0,0 -10.95018,0.488683 -17.921436,0.53454 -6.971261,0.04586 -10.629191,-6.803572 -10.361921,-12.667768 0.267269,-5.864193 0.313126,-16.806505 0.267269,-26.191062 -0.0408,-8.349667 -0.396971,-15.17277 -8.048206,-15.17277 -7.651237,0 -8.315476,7.792738 -8.315476,14.7758 0,6.983063 0.525193,21.073478 0.313123,29.42055 -0.313123,12.324522 6.069511,25.304087 19.395362,25.710247 10.605375,0.32324 24.312305,-0.26727 24.312305,-0.26727 v 96.98333 l 31.750006,0.26726 0.22141,-59.72023 c 0,0 -0.58396,-0.67392 15.30899,-0.7101 20.15131,-0.0459 18.9984,-17.02792 19.75435,-22.31958 0.75595,-5.29167 0.77494,-46.02533 0.9315,-52.168595 0.11873,-4.658831 0.14151,-13.21017 -8.17791,-13.477441 -8.31941,-0.267269 -7.91063,8.056073 -7.91063,14.103691 0,6.047621 -0.61585,44.421005 -0.80181,49.763165 -0.22141,6.36074 -2.44341,8.93386 -9.29284,8.93386 h -9.67408 c 0,0 -0.50636,-87.857995 -0.62625,-92.982149 0,0 -2.39756,-14.363096 -14.4928,-14.363096 -12.095236,0 -16.778916,7.364766 -16.722666,14.141681 z"
       style="display:inline;fill:none;stroke:none;stroke-width:0.00000343;stroke-linecap:butt;stroke-linejoin:miter;stroke-miterlimit:4;stroke-dasharray:none;stroke-opacity:1" />
    <path
       id="path5416"
       d="m 98.431494,209.13477 -12.09394,-0.0723 v -48.45005 -48.45005 l -13.69757,0.0102 -13.697559,0.0102 -2.138159,-0.73245 c -2.833589,-0.9707 -4.558508,-1.99839 -6.671064,-3.97459 -4.0352,-3.77473 -6.593781,-9.455356 -7.329725,-16.273634 -0.441058,-4.086249 -0.509003,-38.470736 -0.08059,-40.783557 0.479935,-2.590969 1.766662,-5.078963 3.184559,-6.157605 2.052005,-1.561031 5.489723,-1.810325 8.047691,-0.5836 1.436454,0.688885 2.537933,2.17256 3.319722,4.471615 0.595034,1.749856 0.59877,1.866767 0.647893,20.273766 0.05379,20.157919 0.02617,19.763912 1.604817,22.879248 0.865515,1.70801 3.059528,3.884073 4.760245,4.721304 l 1.336347,0.657853 9.337133,-0.04389 c 5.13543,-0.02413 9.85608,-0.121719 10.49033,-0.216829 l 1.15319,-0.172934 0.003,-28.781912 c 0.003,-24.093524 0.0654,-29.015665 0.38511,-30.216895 1.28569,-4.830543 4.76387,-8.177974 10.00714,-9.630956 6.049276,-1.676343 11.336796,-0.653735 14.837646,2.869606 2.411,2.42648 3.67325,4.620043 4.7946,8.332113 l 0.68561,2.269643 0.2812,43.564931 c 0.15465,23.960723 0.28003,44.930163 0.27862,46.598753 l -0.003,3.03382 6.61492,-0.11306 c 7.14115,-0.12207 8.2956,-0.31777 10.16014,-1.72232 1.17344,-0.88395 2.13271,-2.86682 2.45816,-5.08119 0.27654,-1.88158 0.68,-20.39475 0.9542,-43.785081 0.0862,-7.349913 0.27454,-14.1987 0.41862,-15.219532 0.65084,-4.611375 2.89727,-6.902566 6.78908,-6.924373 4.47311,-0.02508 6.94339,2.031601 8.0515,6.703391 0.38379,1.618067 0.40998,4.074639 0.24731,23.191329 -0.31337,36.825396 -0.75677,42.982576 -3.50711,48.700766 -1.38822,2.88623 -3.87351,5.34111 -6.82006,6.73661 -3.51475,1.66461 -5.28329,1.915 -15.34415,2.17254 -4.85095,0.12417 -9.0744,0.30207 -9.38546,0.3953 -0.4675,0.14013 -0.59494,0.45059 -0.73499,1.79054 -0.0931,0.89156 -0.16933,14.35213 -0.16933,29.91237 v 28.29136 l -3.54132,-0.064 c -1.94773,-0.0352 -8.9836,-0.0966 -15.635266,-0.13636 z"
       style="opacity:1;fill:#80213d;fill-opacity:1;stroke:none;stroke-width:0.00007851;stroke-miterlimit:4;stroke-dasharray:none;stroke-opacity:1" />
  </g>
  <g
     transform="translate(-35.751174,-23.345238)"
     style="display:inline"
     id="layer1">
    <path
       id="path3719"
       d="m 80.039239,37.486919 c 0.160607,19.350148 0.09171,55.405936 0.09171,55.405936 0,0 -10.950181,0.488684 -17.921442,0.53454 -6.971261,0.04586 -10.629191,-6.803572 -10.361921,-12.667767 0.267269,-5.864194 0.313126,-16.806506 0.267269,-26.191063 -0.0408,-8.349666 -0.396971,-15.172769 -8.048206,-15.172769 -7.651236,0 -8.315475,7.792738 -8.315475,14.775801 0,6.983063 0.525193,21.073476 0.313123,29.420548 -0.313123,12.324522 6.06951,25.304085 19.395361,25.710245 10.605373,0.32324 24.312309,-0.26727 24.312309,-0.26727 v 96.98332 l 31.750003,0.26727 0.22141,-59.72024 c 0,0 -0.58396,-0.67392 15.30899,-0.71009 20.15131,-0.0459 18.9984,-17.02792 19.75435,-22.31959 0.75595,-5.29166 0.77494,-46.025317 0.9315,-52.168583 0.11873,-4.65883 0.14151,-13.21017 -8.17791,-13.47744 -8.31941,-0.267269 -7.91063,8.056073 -7.91063,14.103692 0,6.04762 -0.61585,44.421001 -0.80181,49.763161 -0.22141,6.36073 -2.44341,8.93386 -9.29284,8.93386 h -9.67408 c 0,0 -0.50636,-87.857992 -0.62625,-92.982146 0,0 -2.39756,-14.363096 -14.492797,-14.363096 -12.095239,0 -16.778915,7.364766 -16.722666,14.141681 z"
       style="fill:none;stroke:none;stroke-width:0.0018522;stroke-linecap:butt;stroke-linejoin:miter;stroke-miterlimit:4;stroke-dasharray:none;stroke-opacity:1" />
    <path
       transform="scale(0.26458333)"
       id="path3723"
       d="M 354.00307,778.30698 302.23276,778.0359 V 594.86595 411.696 l -50.76017,0.089 c -46.2195,0.081 -51.34029,-0.0757 -57.24538,-1.75096 -23.67791,-6.71771 -41.6525,-25.06187 -50.3971,-51.43331 -6.07239,-18.31272 -6.18746,-20.14551 -6.48563,-103.30042 -0.2714,-75.687 -0.26947,-75.7684 1.95772,-82.84626 3.11724,-9.90633 7.22191,-15.69292 13.66309,-19.26165 4.73787,-2.62502 6.26131,-2.94287 13.90703,-2.90154 6.72711,0.0364 9.4612,0.50847 12.6269,2.18033 7.62996,4.02952 11.59049,9.88231 14.44493,21.3464 1.47661,5.93046 1.68374,15.0251 1.74072,76.43196 l 0.0647,69.70052 2.29602,5.79377 c 3.76005,9.48813 9.66143,17.3893 16.29821,21.82117 9.41336,6.286 12.25372,6.63223 47.9634,5.84653 17.23661,-0.37924 33.78844,-0.97371 36.78183,-1.32104 l 5.44255,-0.6315 -0.39179,-109.69865 c -0.432,-120.96124 -0.78419,-113.31999 5.77877,-125.37831 3.47778,-6.38981 13.60188,-16.13022 20.28631,-19.51748 11.92437,-6.042535 31.96184,-9.140301 44.21647,-6.835808 8.08447,1.520293 17.14325,5.943169 23.19802,11.326258 6.38842,5.67972 13.59226,10.56205 16.87969,21.40464 1.99705,6.58668 2.54351,13.90007 2.9607,20.77019 l 2.15598,35.50395 c 1.39782,23.01877 1.15923,103.51539 1.57116,178.797 l 0.74897,136.87567 24.24366,-0.0333 c 27.16002,-0.0373 32.30111,-0.90224 39.16449,-6.5889 4.33932,-3.59535 6.52059,-7.3501 8.47643,-14.591 1.64652,-6.09576 3.01368,-58.27167 3.90417,-148.9975 0.33537,-34.16841 1.01425,-66.93978 1.50863,-72.82526 1.89304,-22.53627 9.74021,-31.63942 27.25341,-31.61546 17.71295,0.0242 27.5671,10.17126 30.16001,31.05643 0.94638,7.62289 -0.12492,154.84223 -1.37935,189.55183 -1.22932,34.01479 -4.25885,57.48709 -9.0693,70.26724 -5.83577,15.50422 -17.78749,27.84401 -32.63767,33.69741 -10.7343,4.23107 -19.68312,5.24757 -54.24883,6.16221 -18.33427,0.48514 -34.35782,1.18664 -35.60788,1.55889 l -2.27284,0.67681 v 34.06047 c 0,18.73326 -0.30209,69.59192 -0.6713,113.01927 l -0.6713,78.95884 -7.15738,-0.24317 c -3.93657,-0.13373 -30.45403,-0.36515 -58.92771,-0.51425 z"
       style="opacity:1;fill:url(#linearGradient3731);fill-opacity:1;stroke:none;stroke-width:2.26771665;stroke-miterlimit:4;stroke-dasharray:none;stroke-opacity:1" />
    <path
       id="path5425-5-2-1-0"
       d="m 100.79126,170.82816 -0.3516,-4.54728 -2.380114,0.89085 z"
       style="display:inline;fill:#ffffff;fill-opacity:1;stroke:none;stroke-width:0.07469621px;stroke-linecap:butt;stroke-linejoin:miter;stroke-opacity:1" />
    <path
       id="path5425-5-2-7-9"
       d="m 45.743602,80.173302 -3.938181,2.300447 1.840082,1.752906 z"
       style="display:inline;fill:#ffffff;fill-opacity:1;stroke:none;stroke-width:0.07469621px;stroke-linecap:butt;stroke-linejoin:miter;stroke-opacity:1" />
  </g>
  <g
     transform="translate(-35.751174,-23.345238)"
     id="layer3">
    <path
       id="path5425"
       d="m 86.904453,48.083853 0.955487,5.879931 2.519016,-1.638669 z"
       style="fill:#ffffff;fill-opacity:1;stroke:none;stroke-width:0.09058381px;stroke-linecap:butt;stroke-linejoin:miter;stroke-opacity:1" />
    <path
       id="path5425-5-6"
       d="M 49.41682,61.454057 46.50506,57.943638 45.07562,60.04489 Z"
       style="display:inline;fill:#ffffff;fill-opacity:1;stroke:none;stroke-width:0.07469621px;stroke-linecap:butt;stroke-linejoin:miter;stroke-opacity:1" />
    <path
       id="path5425-5-2-9"
       d="m 101.33486,30.868451 -2.814478,3.588873 2.356238,0.952233 z"
       style="display:inline;fill:#ffffff;fill-opacity:1;stroke:none;stroke-width:0.07469621px;stroke-linecap:butt;stroke-linejoin:miter;stroke-opacity:1" />
    <path
       id="path5425-5"
       d="m 94.729662,74.905955 -4.117255,1.962058 1.686582,1.901052 z"
       style="display:inline;fill:#ffffff;fill-opacity:1;stroke:none;stroke-width:0.07469621px;stroke-linecap:butt;stroke-linejoin:miter;stroke-opacity:1" />
    <path
       id="path5425-5-2"
       d="m 98.443043,97.551335 3.421337,3.015925 1.08597,-2.297665 z"
       style="display:inline;fill:#ffffff;fill-opacity:1;stroke:none;stroke-width:0.07469621px;stroke-linecap:butt;stroke-linejoin:miter;stroke-opacity:1" />
    <path
       id="path5425-5-2-1"
       d="m 85.143479,128.18132 3.42134,3.01592 1.08597,-2.29766 z"
       style="display:inline;fill:#ffffff;fill-opacity:1;stroke:none;stroke-width:0.07469621px;stroke-linecap:butt;stroke-linejoin:miter;stroke-opacity:1" />
    <path
       id="path5425-5-2-2"
       d="m 142.18127,72.268679 -4.55521,0.226663 0.8252,2.403673 z"
       style="display:inline;fill:#ffffff;fill-opacity:1;stroke:none;stroke-width:0.07469621px;stroke-linecap:butt;stroke-linejoin:miter;stroke-opacity:1" />
    <path
       id="path5425-5-2-7"
       d="m 67.188965,102.29902 1.044007,4.43975 2.215566,-1.24493 z"
       style="display:inline;fill:#ffffff;fill-opacity:1;stroke:none;stroke-width:0.07469621px;stroke-linecap:butt;stroke-linejoin:miter;stroke-opacity:1" />
    <path
       id="path5425-5-2-3"
       d="m 135.92469,123.63773 3.42134,3.01593 1.08597,-2.29767 z"
       style="display:inline;fill:#ffffff;fill-opacity:1;stroke:none;stroke-width:0.07469621px;stroke-linecap:butt;stroke-linejoin:miter;stroke-opacity:1" />
  </g>
</svg>
